<svg width="67" height="35" viewBox="0 0 67 35" fill="none" xmlns="http://www.w3.org/2000/svg">
<path d="M10.0057 0.0134216C13.0641 -0.170664 15.4984 1.56615 17.2518 3.656L17.2547 3.65893C18.0824 4.6461 18.7588 5.71171 19.2762 6.69116C21.0197 9.88096 22.0109 13.4116 22.9285 16.2908C24.84 22.6661 25.5262 30.4819 30.7898 31.1775C31.3892 31.2415 32.0101 31.0557 32.6004 30.6638L32.9803 31.2263C33.3754 31.7904 33.8158 32.3566 34.3016 32.905C33.3448 33.6581 32.1477 34.2276 30.7898 34.2634C26.2854 34.5346 23.1327 30.64 21.5193 27.5857C19.776 24.3962 18.7797 20.8631 17.8621 17.9841C17.3268 16.1989 16.8857 14.3012 16.4158 12.4783C16.1209 13.6494 15.8684 14.8365 15.6385 16.0007C15.3824 17.364 15.1672 18.7446 14.9881 20.1189C14.95 20.4104 14.7964 20.6769 14.5633 20.8591C14.3299 21.0413 14.035 21.1252 13.743 21.0915C13.451 21.0576 13.1834 20.9081 12.9979 20.6775C12.8125 20.4466 12.7239 20.1518 12.7537 19.8591C12.8999 18.4385 13.0895 17.0096 13.326 15.5906C13.7892 13.1161 14.2465 10.6077 15.0936 8.16381C14.0333 5.45145 12.5601 3.43693 10.0057 3.09936C9.06546 2.99895 8.07145 3.51138 7.22734 4.47338C4.77984 7.41614 3.70889 11.8567 2.89043 16.0007C2.63439 17.364 2.41919 18.7446 2.24004 20.1189C2.20192 20.4105 2.04844 20.6769 1.81524 20.8591C1.58174 21.0414 1.28706 21.1253 0.994923 21.0915C0.702848 21.0576 0.435375 20.9082 0.249806 20.6775C0.0644915 20.4465 -0.0241248 20.1518 0.00566516 19.8591C0.151822 18.4385 0.341413 17.0096 0.577931 15.5906C1.39459 11.2279 2.18613 6.75769 5.14434 2.72631C6.1763 1.40471 7.89921 0.0689604 10.0057 0.0134216Z" fill="#545454"/>
<path d="M22.7537 0.0134216C26.7319 -0.225856 29.6541 2.78486 31.3943 5.59545L31.6414 6.00561C31.7769 6.23766 31.9054 6.46622 32.0242 6.69116C33.7677 9.88092 34.759 13.4117 35.6766 16.2908C37.5881 22.6662 38.274 30.483 43.5379 31.1785C44.1374 31.2424 44.758 31.0558 45.3484 30.6638C45.8349 31.4109 46.4011 32.1749 47.0486 32.906C46.092 33.6587 44.8953 34.2285 43.5379 34.2644C39.0336 34.5356 35.8809 30.641 34.2674 27.5867C32.5238 24.3969 31.5278 20.8633 30.6102 17.9841C28.6986 11.6088 28.0173 3.79525 22.7537 3.09936C22.1542 3.03533 21.5327 3.22099 20.9422 3.61303C20.4559 2.86584 19.8895 2.10202 19.242 1.37084C20.1987 0.618072 21.3962 0.0492146 22.7537 0.0134216Z" fill="#545454"/>
<path d="M35.5008 0.0134216C40.0052 -0.2578 43.1579 3.6368 44.7713 6.69116C46.5148 9.88094 47.506 13.4116 48.4236 16.2908C48.9602 18.0804 49.402 19.983 49.8738 21.8103C50.1701 20.6357 50.4225 19.4448 50.6531 18.2771C50.9092 16.9138 51.1244 15.5332 51.3035 14.1589C51.3416 13.8673 51.4951 13.601 51.7283 13.4187C51.9619 13.2365 52.2565 13.1524 52.5486 13.1863C52.8407 13.2203 53.1082 13.3696 53.2938 13.6003C53.4789 13.8313 53.5677 14.1262 53.5379 14.4187C53.3917 15.8393 53.2021 17.2683 52.9656 18.6873C52.5023 21.1625 52.0439 23.6714 51.1961 26.116C52.2575 28.827 53.7317 30.841 56.285 31.1785C57.225 31.2789 58.2193 30.7662 59.0633 29.8044C61.5107 26.8618 62.5817 22.421 63.4002 18.2771C63.6562 16.9139 63.8714 15.5332 64.0506 14.1589C64.0887 13.8675 64.2424 13.601 64.4754 13.4187C64.7089 13.2365 65.0036 13.1525 65.2957 13.1863C65.5879 13.2202 65.8552 13.3695 66.0408 13.6003C66.2261 13.8313 66.3148 14.126 66.285 14.4187C66.1388 15.8393 65.9492 17.2683 65.7127 18.6873C64.8961 23.0498 64.1044 27.5203 61.1463 31.5515C60.1143 32.873 58.3912 34.2089 56.285 34.2644C52.1366 34.514 49.1373 31.2285 47.4285 28.322C47.48 28.4106 47.5314 28.5007 47.5857 28.5896C47.5208 28.4833 47.4578 28.3767 47.3963 28.2712V28.2693C47.2614 28.0382 47.1328 27.8107 47.0145 27.5867C45.2709 24.3969 44.2749 20.8633 43.3572 17.9841C41.4456 11.6086 40.7648 3.7948 35.5008 3.09936C34.9015 3.0354 34.2804 3.22041 33.6902 3.61205C33.2037 2.8647 32.6368 2.10116 31.9891 1.36987C32.9456 0.617209 34.1434 0.0492522 35.5008 0.0134216Z" fill="#545454"/>
</svg>
