<svg width="67" height="35" viewBox="0 0 67 35" fill="none" xmlns="http://www.w3.org/2000/svg">
<path d="M37.3025 22.488C38.4769 26.8903 39.9352 30.7025 43.5378 31.1784C44.1372 31.2423 44.7581 31.0557 45.3484 30.6638L45.7283 31.2263C46.1231 31.7906 46.563 32.3578 47.0486 32.906C46.0921 33.6586 44.8951 34.2284 43.5378 34.2644C39.0339 34.5356 35.8809 30.6409 34.2673 27.5866C33.4519 26.0949 32.8007 24.5271 32.2439 22.987L36.8113 20.5739L37.3025 22.488Z" fill="#545454"/>
<path d="M65.2956 13.1863C65.5877 13.2203 65.8553 13.3695 66.0408 13.6003C66.2258 13.8312 66.3147 14.1262 66.2849 14.4187C66.1388 15.8391 65.9491 17.2685 65.7126 18.6872C64.896 23.0496 64.1043 27.5204 61.1462 31.5515C60.1143 32.8728 58.3909 34.2088 56.2849 34.2644C52.3957 34.4984 49.5162 31.6248 47.7634 28.8698L47.4285 28.322C47.4798 28.4104 47.5315 28.5008 47.5857 28.5896C47.5209 28.4834 47.4577 28.3765 47.3962 28.2712V28.2693C47.2615 28.0383 47.1327 27.8105 47.0144 27.5866C45.2709 24.3971 44.2747 20.8632 43.3572 17.9841C43.2827 17.7357 43.2105 17.4844 43.1394 17.2322L47.9246 14.7048L48.4236 16.2907C48.9601 18.0802 49.402 19.9832 49.8738 21.8103C50.17 20.6359 50.4225 19.4447 50.6531 18.2771C50.9091 16.914 51.1243 15.533 51.3035 14.1589C51.3415 13.8674 51.4951 13.601 51.7283 13.4187C51.9618 13.2365 52.2564 13.1524 52.5486 13.1863C52.8405 13.2204 53.1083 13.3696 53.2937 13.6003C53.4786 13.8312 53.5676 14.1264 53.5378 14.4187C53.3917 15.8391 53.2021 17.2684 52.9656 18.6872C52.5023 21.1624 52.0438 23.6715 51.196 26.1159C52.2574 28.8267 53.7319 30.841 56.2849 31.1784C57.2248 31.2787 58.2193 30.7659 59.0632 29.8044C61.5106 26.8619 62.5817 22.4208 63.4001 18.2771C63.6561 16.914 63.8714 15.533 64.0505 14.1589C64.0886 13.8675 64.2424 13.601 64.4753 13.4187C64.7088 13.2365 65.0035 13.1525 65.2956 13.1863Z" fill="#545454"/>
<path d="M25.8064 26.3864C26.8598 28.9601 28.3222 30.8514 30.7898 31.1775C31.389 31.2413 32.0101 31.0555 32.6003 30.6638L32.9802 31.2263C33.3752 31.7902 33.8159 32.3567 34.3015 32.905C33.3448 33.6579 32.1475 34.2275 30.7898 34.2634C26.6818 34.5107 23.7003 31.291 21.9832 28.406L25.8064 26.3864Z" fill="#545454"/>
<path d="M61.0583 0.315161C61.9128 -0.135892 62.9722 0.191308 63.4236 1.04563C63.8749 1.90013 63.5475 2.95938 62.6931 3.41086L5.29956 33.7234C4.44493 34.1747 3.3857 33.8475 2.93432 32.9929C2.48348 32.1384 2.81048 31.0799 3.66479 30.6286L61.0583 0.315161Z" fill="#545454"/>
<path d="M10.0056 0.013403C13.0639 -0.170583 15.4984 1.56619 17.2517 3.65598L17.2546 3.65891C18.0822 4.64595 18.7588 5.71185 19.2761 6.69114C21.0195 9.88079 22.0109 13.4118 22.9285 16.2907C23.0033 16.5405 23.0757 16.7929 23.1472 17.0466L18.3621 19.5739C18.1905 19.0272 18.0249 18.4952 17.8621 17.9841C17.3268 16.1991 16.8856 14.301 16.4158 12.4782C16.1209 13.6493 15.8683 14.8367 15.6384 16.0007C15.3824 17.3638 15.1672 18.7447 14.988 20.1189C14.9498 20.4101 14.7962 20.677 14.5632 20.8591C14.3299 21.0411 14.0348 21.1251 13.7429 21.0915C13.4511 21.0576 13.1833 20.9078 12.9978 20.6775C12.8126 20.4467 12.724 20.1516 12.7537 19.8591C12.8998 18.4386 13.0894 17.0094 13.3259 15.5906C13.7891 13.1162 14.2465 10.6076 15.0935 8.16379C14.0333 5.45155 12.5599 3.43705 10.0056 3.09934C9.0654 2.99894 8.07139 3.51136 7.22729 4.47336C4.77992 7.41612 3.70882 11.8568 2.89038 16.0007C2.63438 17.3639 2.41911 18.7447 2.23999 20.1189C2.20174 20.4102 2.04823 20.677 1.81518 20.8591C1.5818 21.0412 1.28684 21.1252 0.994868 21.0915C0.703 21.0576 0.435305 20.9079 0.249751 20.6775C0.0645557 20.4467 -0.0240087 20.1516 0.00561054 19.8591C0.151749 18.4386 0.3414 17.0094 0.577876 15.5906C1.39452 11.228 2.18623 6.7576 5.14428 2.72629C6.17625 1.40469 7.89916 0.0689418 10.0056 0.013403Z" fill="#545454"/>
<path d="M22.7537 0.013403C26.7317 -0.225745 29.6541 2.7849 31.3943 5.59543L31.6414 6.00559C31.7767 6.23745 31.9054 6.46638 32.0242 6.69114C32.8398 8.18339 33.4898 9.7509 34.0457 11.2907L29.4763 13.7038C28.1845 8.54392 26.871 3.64396 22.7537 3.09934C22.1541 3.03532 21.5326 3.22099 20.9421 3.61301C20.4559 2.86598 19.8892 2.10186 19.2419 1.37082C20.1986 0.61806 21.3961 0.0491958 22.7537 0.013403Z" fill="#545454"/>
<path d="M35.5007 0.013403C39.6091 -0.233843 42.5903 2.98558 44.3074 5.87082L40.4822 7.89133C39.4299 5.31687 37.9691 3.4256 35.5007 3.09934C34.9015 3.03539 34.2804 3.22041 33.6902 3.61204C33.2037 2.86484 32.6366 2.101 31.989 1.36985C32.9456 0.617197 34.1434 0.0492334 35.5007 0.013403Z" fill="#545454"/>
</svg>
